<?xml version="1.0" standalone="no"?>
<!DOCTYPE svg PUBLIC "-//W3C//DTD SVG 20010904//EN"
 "http://www.w3.org/TR/2001/REC-SVG-20010904/DTD/svg10.dtd">
<svg version="1.0" xmlns="http://www.w3.org/2000/svg"
 width="93.000000pt" height="93.000000pt" viewBox="0 0 93.000000 93.000000"
 preserveAspectRatio="xMidYMid meet">
<metadata>
Created by potrace 1.11, written by Peter Selinger 2001-2013
</metadata>
<g transform="translate(0.000000,93.000000) scale(0.100000,-0.100000)"
fill="#000000" stroke="none">
<path d="M428 795 c-2 -2 -18 -5 -36 -8 -61 -10 -140 -56 -187 -110 -92 -105
-107 -243 -39 -368 82 -149 283 -205 438 -121 46 25 126 104 126 125 0 5 -18
-10 -39 -34 -116 -132 -311 -144 -433 -26 -115 112 -116 280 -3 393 161 161
438 66 460 -158 6 -58 26 -82 59 -72 29 9 35 23 31 69 -7 64 -13 84 -41 133
-61 105 -162 167 -284 176 -27 2 -50 3 -52 1z"/>
<path d="M392 694 c-19 -13 -22 -24 -22 -76 0 -61 -1 -62 -49 -107 -55 -51
-69 -87 -51 -131 12 -28 62 -56 81 -44 13 8 22 -22 15 -50 -11 -43 -67 -45
-81 -3 -6 20 -8 20 -12 4 -6 -22 23 -57 47 -57 30 0 62 34 66 69 2 20 15 44
30 58 21 20 25 30 20 56 -6 28 -16 41 -39 49 -4 2 -9 20 -11 41 -4 34 0 41 42
76 36 31 45 46 45 70 0 19 -7 37 -19 46 -24 19 -35 18 -62 -1z m53 -15 c17
-27 12 -50 -16 -74 -17 -14 -34 -25 -38 -25 -7 0 -5 74 3 95 5 14 44 17 51 4z
m-75 -180 c0 -12 -13 -34 -30 -49 -30 -28 -39 -50 -21 -50 5 0 13 9 16 20 12
37 35 23 35 -20 0 -47 -16 -58 -57 -38 -22 10 -29 21 -31 49 -3 30 3 41 35 72
43 42 53 45 53 16z m48 -87 c3 -22 -13 -52 -27 -52 -4 0 -6 18 -6 40 0 31 3
40 15 38 8 -2 16 -14 18 -26z"/>
<path d="M592 483 c-2 -66 -2 -67 28 -67 22 -1 24 -4 23 -54 0 -29 2 -50 5
-47 3 3 6 32 6 64 1 59 1 59 -26 54 -26 -5 -27 -4 -31 48 l-3 54 -2 -52z"/>
<path d="M642 496 c1 -20 5 -39 9 -42 7 -4 0 68 -8 76 -2 2 -3 -13 -1 -34z"/>
<path d="M496 485 c-3 -8 -1 -15 4 -15 6 0 10 7 10 15 0 8 -2 15 -4 15 -2 0
-6 -7 -10 -15z"/>
<path d="M499 453 c-3 -28 0 -95 4 -99 3 -3 5 20 5 50 -1 31 -3 56 -4 56 -2 0
-4 -3 -5 -7z"/>
<path d="M592 375 c0 -16 2 -22 5 -12 2 9 2 23 0 30 -3 6 -5 -1 -5 -18z"/>
<path d="M497 334 c-3 -5 1 -15 9 -22 16 -14 18 -5 5 17 -5 7 -11 9 -14 5z"/>
<path d="M586 325 c4 -8 8 -15 10 -15 2 0 4 7 4 15 0 8 -4 15 -10 15 -5 0 -7
-7 -4 -15z"/>
<path d="M530 309 c0 -5 5 -7 10 -4 6 3 10 8 10 11 0 2 -4 4 -10 4 -5 0 -10
-5 -10 -11z"/>
</g>
</svg>
